<svg id="Layer_1" data-name="Layer 1" xmlns="http://www.w3.org/2000/svg" viewBox="0 0 307.42 96.2"><defs><style>.cls-1{fill:#14bec8;}.cls-2{fill:#f00f23;}.cls-3{fill:#130b1b;}</style></defs><title>Artboard 2</title><path class="cls-1" d="M127.73,57.08H99.54V6.19A6.21,6.21,0,0,0,93.35,0h0a6.21,6.21,0,0,0-6.19,6.19V63.32a6.21,6.21,0,0,0,6.19,6.19h34.43a6.21,6.21,0,0,0,6.19-6.19v0A6.21,6.21,0,0,0,127.73,57.08Z"/><path class="cls-1" d="M160.61,19.28a25.13,25.13,0,1,0,25.13,25.13A25.13,25.13,0,0,0,160.61,19.28Zm0,38.49A13.37,13.37,0,1,1,174,44.41,13.37,13.37,0,0,1,160.61,57.77Z"/><rect class="cls-1" x="294.98" width="12.43" height="69.53" rx="6.19" ry="6.19"/><path class="cls-1" d="M283.19,19.25h0a6.18,6.18,0,0,0-5.81,4.13,25.13,25.13,0,1,0,0,42.11,6.18,6.18,0,0,0,5.82,4.15h0a6.18,6.18,0,0,0,6.17-6.17V25.42A6.18,6.18,0,0,0,283.19,19.25ZM263.62,57.8A13.37,13.37,0,1,1,277,44v.82A13.36,13.36,0,0,1,263.62,57.8Z"/><path class="cls-1" d="M233.5,54.29a5.88,5.88,0,0,0-8.21-1.16l-3.17,2.39v0a13.39,13.39,0,1,1,0-22.26v0l3.17,2.39a5.88,5.88,0,0,0,8.21-1.16l0,0c1.32-1.76,1.58-4.73.25-6.42a23.82,23.82,0,0,0-3.82-3.61l-.4-.3a25.12,25.12,0,0,0-7.43-3.75h0l-.27-.08-.34-.1-.58-.16-.37-.09-.57-.13-.39-.08-.56-.1-.4-.07-.58-.08-.4-.05-.6-.06-.38,0-.68,0-.32,0-1,0h0l-1.21,0-.5,0-.71.05-.64.07-.54.07-.72.12-.42.08-.79.17-.32.07-.85.22-.22.06-.92.28-.12,0a25.17,25.17,0,0,0-1,47.39h0l1,.35.13,0,.91.28.23.06.85.22.33.08.79.17.43.08.72.12.55.07.63.07.72.05.49,0c.41,0,.82,0,1.23,0h0l1,0,.34,0,.65,0,.4,0,.59-.06.41-.05.57-.08.41-.07.56-.1L220,69l.56-.13.38-.09.58-.16.34-.1.27-.08h0a25.12,25.12,0,0,0,7.43-3.75l.4-.3a23.82,23.82,0,0,0,3.82-3.61c1.33-1.69,1.08-4.66-.25-6.42Z"/><path class="cls-1" d="M43.57,67.15,25.14,85.58a6.22,6.22,0,0,0,0,8.77l0,0a6.22,6.22,0,0,0,8.77,0L36.3,92l.27-.25,2.52-2.52.25-.22L52.41,76l-8.83-8.83m31.68-29a6.19,6.19,0,0,0-4.39,1.81l-2.35,2.35-.27.25L65.72,45l-.25.22L52.41,58.31l8.83,8.83L79.67,48.71a6.22,6.22,0,0,0,0-8.77l0,0a6.18,6.18,0,0,0-4.39-1.81"/><path class="cls-2" d="M61.24,67.15,52.41,76,65.47,89a6.15,6.15,0,0,0,.5.44l4.89,4.89a6.22,6.22,0,0,0,8.77,0l0,0a6.22,6.22,0,0,0,0-8.77L61.24,67.15M12.45,33V12.5H35.39a10.46,10.46,0,0,1,2,.25,10.14,10.14,0,0,1,1.49.42,12,12,0,0,1,1.75.83,11.12,11.12,0,0,1,1.57,1.13,10.77,10.77,0,0,1,1.52,1.71,10.42,10.42,0,0,1,.92,1.64c.14.34.23.57.33.86s.2.68.26,1A9.73,9.73,0,0,1,45.43,22a11.82,11.82,0,0,1,0,1.23,9.82,9.82,0,0,1-.13,1,15,15,0,0,1-.54,1.88,11.47,11.47,0,0,1-.8,1.67,12.29,12.29,0,0,1-1,1.37,11.2,11.2,0,0,1-1.76,1.74,10.34,10.34,0,0,1-1.17.84,8.91,8.91,0,0,1-1.4.72,10,10,0,0,1-1.44.39,6.41,6.41,0,0,1-1.35.13H12.45M35.85,0H6.2A6.2,6.2,0,0,0,0,6.2V45.09l0,.24H0v18a6.2,6.2,0,0,0,6.2,6.2h0a6.2,6.2,0,0,0,6.2-6.2v-18h9.33l3.11,3.11.25.27L43.57,67.15l8.83-8.83L39.34,45.25l-.09-.08.62-.11a22.15,22.15,0,0,0,3.19-.87,19.76,19.76,0,0,0,3.09-1.58,23,23,0,0,0,2.58-1.87,24.74,24.74,0,0,0,3.9-3.84,27.15,27.15,0,0,0,2.12-3,25.34,25.34,0,0,0,1.76-3.7A32.91,32.91,0,0,0,57.7,26,21.74,21.74,0,0,0,58,23.77a25.91,25.91,0,0,0,.08-2.71,21.67,21.67,0,0,0-.46-3.79c-.14-.6-.36-1.42-.58-2.11s-.41-1.15-.72-1.9a23,23,0,0,0-2-3.62,23.84,23.84,0,0,0-3.37-3.79,24.66,24.66,0,0,0-3.48-2.51,26.7,26.7,0,0,0-3.88-1.84,22.47,22.47,0,0,0-3.3-.93A23.11,23.11,0,0,0,35.85,0"/><polyline class="cls-3" points="52.41 58.31 43.57 67.15 52.41 75.98 61.24 67.15 52.41 58.31"/></svg>